# xmcd
# 
# Track frame offsets:
#     182
#     15185
#     31942
#     45982
#     58797
#     69847
#     84077
#     99322
#     114532
#     133220
# 
# Disc length: 1971
# 
# Revision: 5
# Processed by: cddbd v1.5.2PL0 Copyright (c) Steve Scherf et al.
# Submitted via: fre:ac v1.0.31
# 
DISCID=6d07b10a
DTITLE=Confederate Railroad - Greatest Hits
DYEAR=1996
DGENRE=Country
TTITLE0=Queen Of Memphis
TTITLE1=Daddy Never Was The Cadillac Kind
TTITLE2=The One You Love The Most
TTITLE3=See Ya
TTITLE4=When And Where
TTITLE5=Elvis And Andy
TTITLE6=Jesus And Mama
TTITLE7=Finish What He Started
TTITLE8=When You Leave That Way You Can Never Go Back
TTITLE9=Trashy Women
EXTD=YEAR: 1995
EXTT0=
EXTT1=
EXTT2=
EXTT3=
EXTT4=
EXTT5=
EXTT6=
EXTT7=
EXTT8=
EXTT9=
PLAYORDER=
